# xmcd CD database file
#
# Track frame offsets:
#	150
#	16994
#	29648
#	45959
#	67231
#	78253
#	97190
#	111672
#	130039
#	140153
#	155167
#	167300
#	187649
#	202500
#	215301
#
# Disc length: 3125 seconds
#
# Revision: 0
# Processed by: cddbd v1.5.2PL0 Copyright (c) Steve Scherf et al.
# Submitted via: CDex 1.70beta2
#
DISCID=c90c330f
DTITLE=Henry Eye - Stagefright
DYEAR=2008
DGENRE=Country
TTITLE0=Cowgirls
TTITLE1=Back to the roots
TTITLE2=Deliver
TTITLE3=I left my boots in Oklahoma
TTITLE4=Big Sur
TTITLE5=Stagefright
TTITLE6=Vacation in the USA
TTITLE7=You are with me
TTITLE8=Hands off
TTITLE9=Hey Countrymusic
TTITLE10=Don't kill the friendship with me
TTITLE11=Not for you
TTITLE12=Swinging doors
TTITLE13=My home is my castle
TTITLE14=Stagefright Piano
EXTD=YEAR: 2008
EXTT0=
EXTT1=
EXTT2=
EXTT3=
EXTT4=
EXTT5=
EXTT6=
EXTT7=
EXTT8=
EXTT9=
EXTT10=
EXTT11=
EXTT12=
EXTT13=
EXTT14=
PLAYORDER=
